<svg xmlns="http://www.w3.org/2000/svg" version="1.1" xmlns:xlink="http://www.w3.org/1999/xlink" width="24" height="24"><svg xmlns="http://www.w3.org/2000/svg" viewBox="0 0 24 24">
  <rect width="24" height="24" fill="#0a0a0a" rx="4"></rect>
  <path d="M21 16V8a2 2 0 0 0-1-1.73l-7-4a2 2 0 0 0-2 0l-7 4A2 2 0 0 0 3 8v8a2 2 0 0 0 1 1.73l7 4a2 2 0 0 0 2 0l7-4A2 2 0 0 0 21 16z" fill="none" stroke="#20808d" stroke-width="2"></path>
  <polyline points="7.5 4.21 12 6.81 16.5 4.21" stroke="#20808d" stroke-width="2" fill="none"></polyline>
  <polyline points="7.5 19.79 7.5 14.6 3 12" stroke="#20808d" stroke-width="2" fill="none"></polyline>
  <polyline points="21 12 16.5 14.6 16.5 19.79" stroke="#20808d" stroke-width="2" fill="none"></polyline>
  <polyline points="3.27 6.96 12 12.01 20.73 6.96" stroke="#20808d" stroke-width="2" fill="none"></polyline>
  <line x1="12" y1="22.08" x2="12" y2="12" stroke="#20808d" stroke-width="2"></line>
</svg><style>@media (prefers-color-scheme: light) { :root { filter: none; } }
@media (prefers-color-scheme: dark) { :root { filter: none; } }
</style></svg>